<svg width="177" height="84" viewBox="0 0 177 84" fill="none" xmlns="http://www.w3.org/2000/svg">
<g filter="url(#filter0_d)">
<path d="M4 0H17.5285V74.3465H4V0Z" fill="white"/>
<path d="M59.7675 20.2626C67.0127 20.2626 73.2057 22.9984 78.2864 28.4398C83.3972 33.9114 85.9526 40.4652 85.9526 48.1313C85.9526 55.7974 83.3972 62.3813 78.2864 67.8228C73.1757 73.2943 67.0127 76 59.7675 76C53.3038 76 47.9526 73.5648 43.7137 68.7247V74.3164H30.1852V-2.28882e-05H43.7137V27.568C47.9225 22.6978 53.2738 20.2626 59.7675 20.2626ZM47.9225 58.2927C50.7485 61.1186 54.1156 62.5316 58.0538 62.5316C61.9921 62.5316 65.3893 61.1186 68.1852 58.2927C71.0111 55.4667 72.4241 52.0997 72.4241 48.1614C72.4241 44.2231 71.0111 40.8259 68.1852 38.03C65.3592 35.2041 61.9921 33.7911 58.0538 33.7911C54.1156 33.7911 50.7184 35.2041 47.9225 38.03C45.0966 40.856 43.6836 44.2231 43.6836 48.1614C43.7137 52.0997 45.1266 55.4667 47.9225 58.2927Z" fill="white"/>
<path d="M152.693 20.2626C158.886 20.2626 163.817 22.2769 167.484 26.3354C171.152 30.394 172.986 36.2563 172.986 43.9225V74.3465H159.457V45.6361C159.457 41.4873 158.826 38.481 157.624 36.6171C156.391 34.7532 154.196 33.8212 151.01 33.8212C144.245 33.8212 140.878 38.3307 140.878 47.3497V74.3766H127.35V45.6661C127.35 41.5775 126.688 38.6013 125.336 36.6772C123.983 34.7832 121.848 33.8212 118.902 33.8212C112.138 33.8212 108.771 38.3307 108.771 47.3497V74.3766H95.2422V21.9763H108.771V27.057C112.348 22.5475 116.858 20.2927 122.299 20.2927C128.913 20.2927 133.813 22.6377 136.97 27.3576C141.179 22.6377 146.44 20.2626 152.693 20.2626Z" fill="white"/>
</g>
<defs>
<filter id="filter0_d" x="0" y="-2.28882e-05" width="176.986" height="84" filterUnits="userSpaceOnUse" color-interpolation-filters="sRGB">
<feFlood flood-opacity="0" result="BackgroundImageFix"/>
<feColorMatrix in="SourceAlpha" type="matrix" values="0 0 0 0 0 0 0 0 0 0 0 0 0 0 0 0 0 0 127 0"/>
<feOffset dy="4"/>
<feGaussianBlur stdDeviation="2"/>
<feColorMatrix type="matrix" values="0 0 0 0 0 0 0 0 0 0 0 0 0 0 0 0 0 0 0.25 0"/>
<feBlend mode="normal" in2="BackgroundImageFix" result="effect1_dropShadow"/>
<feBlend mode="normal" in="SourceGraphic" in2="effect1_dropShadow" result="shape"/>
</filter>
</defs>
</svg>
